<?xml version="1.0" standalone="no"?>
<!DOCTYPE svg PUBLIC "-//W3C//DTD SVG 20010904//EN"
 "http://www.w3.org/TR/2001/REC-SVG-20010904/DTD/svg10.dtd">
<svg version="1.0" xmlns="http://www.w3.org/2000/svg"
 width="500.000000pt" height="500.000000pt" viewBox="0 0 500.000000 500.000000"
 preserveAspectRatio="xMidYMid meet">
<metadata>
Created by potrace 1.14, written by Peter Selinger 2001-2017
</metadata>
<g transform="translate(0.000000,500.000000) scale(0.100000,-0.100000)"
fill="#000000" stroke="none">
<path d="M1580 4684 c-498 -172 -965 -334 -1037 -360 l-133 -46 -2 -631 -3
-631 -45 -16 c-123 -43 -200 -99 -247 -178 -22 -38 -24 -49 -18 -100 15 -118
116 -255 295 -401 73 -60 76 -64 100 -162 13 -52 45 -158 72 -236 305 -890
1000 -1613 1810 -1884 l123 -41 60 18 c968 284 1818 1281 1995 2341 28 171 40
353 40 643 l1 255 48 42 c54 47 190 119 247 131 32 7 39 12 39 32 0 20 -6 26
-35 30 -55 9 -128 49 -155 84 -13 17 -29 54 -36 81 -21 90 -25 100 -41 103 -9
2 -26 -13 -39 -35 l-24 -38 -3 297 -2 296 -58 20 c-31 11 -501 173 -1043 361
-543 187 -991 341 -995 340 -5 0 -416 -142 -914 -315z m1900 -66 c525 -182
981 -339 1013 -350 l57 -20 0 -311 c0 -305 0 -311 -22 -334 -12 -13 -25 -23
-30 -23 -4 0 -8 142 -8 315 0 173 -2 315 -4 315 -2 0 -446 153 -987 340 -541
187 -991 340 -1000 340 -9 0 -459 -153 -1000 -340 -540 -187 -984 -340 -986
-340 -2 0 -3 -263 -3 -585 0 -498 -2 -585 -14 -585 -8 0 -21 -3 -30 -6 -14 -6
-16 52 -16 604 l0 610 33 12 c17 6 477 165 1022 354 545 189 997 342 1005 339
8 -2 445 -153 970 -335z m-58 -127 c508 -176 938 -325 956 -331 l32 -12 0
-318 0 -317 -57 -26 -58 -26 -3 303 -2 302 -888 307 c-488 169 -894 307 -902
307 -8 0 -414 -138 -902 -307 l-888 -306 0 -494 0 -493 -28 0 c-15 0 -42 -4
-60 -9 l-32 -10 2 546 3 545 950 328 c523 181 951 329 952 330 1 0 417 -144
925 -319z m-640 -230 c62 -11 163 -36 223 -55 146 -48 370 -160 475 -240 116
-87 312 -291 386 -401 125 -187 220 -425 259 -647 21 -116 20 -435 -1 -559
-36 -209 -151 -488 -275 -664 -82 -115 -279 -312 -394 -394 -175 -123 -457
-240 -665 -276 -441 -75 -912 37 -1262 300 -157 118 -346 330 -442 498 l-28
47 51 -27 c43 -21 68 -47 139 -142 101 -135 165 -201 282 -292 162 -126 286
-196 443 -249 37 -13 70 -20 73 -17 3 3 -11 27 -30 55 -20 27 -36 55 -36 62 0
7 -11 26 -25 42 -14 16 -22 34 -19 39 3 5 -4 25 -15 44 -11 19 -17 35 -13 35
4 0 43 -20 87 -43 l80 -43 -3 -43 c-3 -27 1 -48 11 -59 8 -9 18 -30 21 -47 19
-88 97 -109 406 -109 176 0 220 3 310 22 436 94 763 319 1019 700 24 35 49 62
59 62 13 0 14 2 4 9 -11 6 -6 23 21 77 66 132 137 370 137 461 0 59 -32 126
-87 184 -62 65 -74 71 -163 81 -111 12 -142 19 -172 39 -14 11 -29 19 -32 19
-11 0 13 -38 41 -66 21 -21 32 -25 57 -20 27 5 37 1 63 -26 30 -31 31 -35 18
-64 -16 -38 -79 -83 -181 -131 -44 -20 -74 -39 -71 -46 5 -15 95 -11 114 4 10
9 13 6 13 -13 0 -36 -62 -132 -136 -211 l-67 -70 6 -59 c3 -32 3 -58 1 -58 -7
0 -165 39 -219 54 -27 8 -66 17 -85 21 -19 3 -65 15 -103 26 -73 23 -80 31
-75 103 3 41 3 41 -64 69 -33 15 -41 15 -72 2 -20 -8 -64 -15 -99 -15 -64 0
-64 0 -117 53 -77 76 -79 81 -81 183 -1 83 1 96 26 138 15 25 35 52 44 59 10
6 35 44 57 84 l39 72 -28 29 c-24 25 -27 35 -22 65 10 51 24 64 75 74 39 7 45
12 48 35 2 19 -3 30 -17 38 -25 13 -28 30 -5 30 23 0 74 39 74 57 0 8 21 33
46 56 29 27 49 54 54 77 7 30 8 31 9 9 1 -39 23 -52 72 -44 43 7 89 43 89 68
0 8 7 17 15 21 8 3 15 17 15 31 0 22 4 25 36 25 41 0 43 23 3 28 -13 2 -39 8
-57 14 -32 10 -34 12 -28 47 16 93 5 109 -30 41 -25 -48 -30 -90 -15 -119 11
-19 -26 -111 -45 -111 -6 0 -18 18 -27 40 -17 43 -27 49 -47 25 -19 -23 -30
-18 -46 20 -20 48 -19 52 26 92 39 35 58 74 80 161 20 79 131 131 178 84 11
-11 38 -22 60 -26 35 -5 46 -13 67 -46 32 -51 45 -51 38 0 -6 43 2 51 23 23
12 -17 14 -16 41 8 15 14 41 26 58 27 51 3 61 42 11 42 -30 0 -89 20 -98 34
-11 16 -10 144 2 166 9 16 0 25 -63 64 -135 84 -341 158 -531 191 -117 20
-119 20 -104 -5 10 -15 10 -22 0 -32 -19 -19 -14 -28 18 -28 23 0 30 -5 30
-19 0 -10 -6 -21 -14 -24 -31 -12 -57 -82 -90 -239 -4 -15 -18 -38 -33 -52
-25 -23 -26 -34 -8 -77 12 -31 -83 -119 -128 -119 -21 0 -129 -66 -152 -94
-11 -12 -33 -45 -48 -71 l-28 -48 -26 26 c-23 22 -27 36 -31 104 -4 74 -2 80
26 119 21 29 28 48 25 67 -3 15 2 45 11 67 20 51 23 134 6 155 -8 10 -23 15
-37 12 -30 -6 -31 21 -3 78 16 33 28 44 59 54 26 7 41 18 44 33 4 12 5 24 3
25 -2 2 -23 -5 -47 -15 -27 -12 -69 -45 -106 -85 l-62 -66 -30 15 c-38 19 -40
48 -6 70 27 18 34 37 10 28 -19 -8 -19 4 0 36 20 35 18 42 -7 38 -19 -2 -23
-9 -21 -34 2 -21 -2 -34 -13 -38 -12 -5 -14 -1 -8 17 7 22 6 22 -15 3 -21 -19
-21 -19 -21 2 0 27 -9 27 -71 1 -42 -18 -49 -26 -49 -49 0 -15 -6 -33 -14 -39
-19 -16 -102 -26 -110 -13 -10 17 -34 3 -50 -29 -12 -24 -13 -38 -7 -67 1 -2
17 6 36 18 19 12 39 20 44 18 5 -2 -9 -32 -30 -67 -21 -36 -39 -75 -39 -87 0
-25 -22 -36 -55 -28 -12 3 -26 1 -30 -6 -10 -16 14 -40 39 -40 28 0 99 70 125
123 12 24 33 55 49 70 23 22 33 25 57 19 37 -10 36 -22 -1 -42 -38 -21 -83
-108 -81 -154 1 -20 4 -36 6 -36 3 0 18 12 33 27 29 28 36 49 17 55 -15 5 10
55 43 84 38 35 59 43 82 31 12 -5 28 -13 36 -17 10 -5 14 -18 12 -39 -2 -19 4
-41 17 -60 23 -32 27 -61 11 -77 -8 -8 -8 -25 0 -57 8 -36 7 -52 -2 -67 -15
-24 -24 -25 -32 -5 -11 30 -27 16 -21 -19 6 -28 3 -36 -21 -55 l-29 -22 -28
35 c-16 20 -37 36 -46 36 -23 0 -31 9 -24 26 3 8 15 14 28 14 14 0 36 14 55
36 26 30 31 42 26 67 -7 34 -32 67 -52 67 -6 0 -24 -34 -39 -75 -26 -70 -30
-75 -57 -75 -25 0 -29 -3 -23 -17 15 -37 11 -48 -22 -51 -38 -4 -38 -3 -19 43
8 19 11 35 7 35 -5 0 -47 -34 -94 -75 -58 -51 -89 -86 -97 -110 -13 -40 -7
-55 44 -104 32 -31 36 -41 36 -85 l1 -51 19 24 c11 13 20 29 20 35 0 7 18 31
40 54 35 36 39 45 30 63 -10 17 -8 25 8 42 11 12 24 36 29 52 12 39 42 43 77
10 25 -23 27 -29 17 -56 -15 -43 11 -50 51 -13 l30 29 -7 -53 c-6 -43 -3 -58
14 -88 14 -24 21 -52 21 -89 0 -35 5 -59 16 -69 22 -23 14 -60 -13 -64 -13 -2
-23 1 -23 7 0 6 -9 11 -20 11 -26 0 -25 4 6 46 32 42 27 51 -17 29 -21 -11
-45 -15 -71 -12 -37 5 -59 -5 -38 -18 5 -3 10 -14 10 -24 0 -10 11 -23 25 -29
14 -6 25 -18 25 -27 0 -21 -68 -47 -105 -41 -36 7 -47 0 -67 -37 -8 -16 -25
-34 -39 -40 -14 -7 -37 -38 -54 -73 -20 -41 -45 -73 -75 -96 -49 -37 -52 -53
-35 -143 l8 -40 -21 19 c-12 10 -24 28 -28 40 -16 55 -76 84 -104 51 -8 -9
-30 -15 -58 -15 -28 0 -52 -6 -64 -17 -17 -15 -24 -13 -114 33 -61 31 -118 69
-155 104 l-59 56 0 87 c0 73 6 106 36 200 46 145 146 350 223 457 66 92 210
247 306 327 192 161 488 296 750 342 154 27 403 28 557 2z m254 -192 c3 -6 -3
-20 -14 -32 -19 -19 -20 -22 -5 -50 15 -29 14 -30 -7 -24 -16 4 -24 1 -27 -14
-7 -25 -14 -24 -35 5 -28 39 -33 75 -12 83 11 3 30 15 43 25 27 21 47 23 57 7z
m-1097 -25 c3 -3 -1 -10 -7 -16 -7 -7 -12 -24 -12 -39 0 -54 -32 -41 -50 20
-7 25 -5 33 8 41 15 8 49 5 61 -6z m80 -72 c16 -3 21 -9 19 -24 -5 -34 -33
-46 -66 -28 -35 20 -39 49 -10 80 l22 24 6 -25 c4 -15 14 -25 29 -27z m617
-427 c11 -28 -23 -65 -59 -65 -40 0 -57 15 -57 52 0 27 1 28 55 28 40 0 57 -4
61 -15z m1696 -198 c20 -7 46 -25 58 -39 19 -25 20 -39 20 -280 0 -455 -28
-688 -118 -978 -100 -321 -296 -685 -522 -970 -100 -126 -332 -360 -450 -453
-232 -185 -496 -332 -736 -411 -80 -27 -82 -27 -138 -11 -89 26 -240 90 -355
151 -602 318 -1113 922 -1350 1598 -22 65 -41 121 -41 126 0 8 24 -4 111 -58
31 -19 42 -37 79 -130 57 -145 175 -372 266 -508 325 -492 809 -890 1277
-1050 l68 -23 87 30 c210 74 495 241 692 407 115 96 310 296 403 412 252 315
455 722 540 1085 53 227 59 293 64 718 3 218 6 397 6 397 1 0 19 -6 39 -13z
m-1564 -37 c2 -13 17 -47 34 -76 29 -52 30 -74 4 -74 -7 0 -25 -9 -39 -20 -14
-11 -28 -20 -31 -20 -12 0 -6 56 9 84 15 28 14 32 -5 58 -23 31 -25 49 -8 66
17 17 32 10 36 -18z m-62 -116 c-8 -32 -34 -31 -42 3 -6 21 -2 31 17 46 24 19
24 19 27 -3 2 -12 1 -33 -2 -46z m1834 -528 c-12 -195 -21 -264 -57 -431 -113
-534 -422 -1087 -837 -1500 -320 -319 -673 -540 -1060 -666 l-88 -28 -122 40
c-157 52 -430 187 -576 284 -540 361 -970 917 -1190 1541 -44 127 -92 295 -86
302 3 2 18 -7 35 -19 21 -15 35 -37 41 -63 19 -76 92 -281 142 -396 220 -516
632 -1011 1098 -1321 136 -90 393 -218 543 -268 l117 -40 118 40 c251 86 548
255 774 442 129 106 351 332 449 457 275 349 473 745 570 1135 53 218 70 363
76 668 l6 277 26 41 26 40 3 -183 c2 -101 -2 -259 -8 -352z m-945 -828 c-32
-105 -65 -140 -95 -103 -18 22 24 112 54 118 45 9 48 8 41 -15z m-210 -15
c-11 -11 -15 -26 -11 -44 4 -21 -1 -36 -19 -58 -14 -16 -25 -33 -25 -37 0 -5
-16 -32 -36 -61 -39 -56 -96 -88 -149 -81 -25 3 -31 11 -55 83 -15 44 -31 94
-34 111 -7 31 -6 32 46 47 53 16 247 54 281 56 17 1 17 0 2 -16z"/>
<path d="M2407 4213 c-13 -12 -7 -23 11 -23 10 0 23 -5 30 -12 9 -9 13 -8 17
5 4 9 13 13 20 11 7 -3 26 1 42 10 27 15 27 15 -43 16 -39 0 -74 -3 -77 -7z"/>
<path d="M2105 4101 c-3 -5 -1 -12 5 -16 5 -3 10 1 10 9 0 18 -6 21 -15 7z"/>
<path d="M3399 3904 c-13 -35 -3 -83 23 -111 21 -22 122 -52 134 -40 14 13
-34 97 -71 127 -66 53 -74 55 -86 24z"/>
<path d="M1510 3861 c-45 -39 -45 -39 -26 -60 25 -27 46 -27 46 1 0 12 7 29
16 39 8 9 14 27 12 38 -3 19 -7 18 -48 -18z"/>
<path d="M1355 3720 c-10 -17 12 -37 25 -24 8 8 6 15 -4 23 -10 9 -16 9 -21 1z"/>
<path d="M3268 3598 c-30 -10 -38 -44 -16 -66 18 -18 27 -15 21 8 -4 13 0 20
10 20 17 0 32 30 20 40 -4 4 -20 3 -35 -2z"/>
<path d="M1440 3090 c-9 -6 -10 -10 -3 -10 6 0 15 5 18 10 8 12 4 12 -15 0z"/>
<path d="M1480 3090 c0 -5 4 -10 9 -10 6 0 13 5 16 10 3 6 -1 10 -9 10 -9 0
-16 -4 -16 -10z"/>
<path d="M3345 3061 c5 -24 2 -30 -15 -36 -11 -4 -27 -2 -35 5 -10 8 -18 6
-33 -11 -27 -28 -18 -53 17 -44 14 4 37 6 51 5 88 -7 105 -5 108 12 2 11 -8
23 -28 33 -17 9 -36 27 -42 40 -15 34 -31 31 -23 -4z"/>
<path d="M1525 3050 c-9 -14 4 -52 16 -45 12 8 12 55 0 55 -6 0 -13 -5 -16
-10z"/>
<path d="M3012 3008 c3 -7 19 -21 36 -31 25 -15 32 -16 32 -5 0 7 -13 21 -29
31 -35 20 -44 21 -39 5z"/>
<path d="M1458 3004 c-5 -4 -8 -16 -8 -28 0 -14 3 -17 11 -9 6 6 9 19 7 28 -1
9 -6 13 -10 9z"/>
<path d="M2903 2963 c-34 -3 -48 -11 -68 -37 -14 -18 -25 -38 -25 -44 0 -6
-15 -23 -32 -37 -18 -15 -26 -24 -18 -21 77 27 127 37 172 34 52 -3 53 -4 58
-38 3 -23 11 -36 23 -38 11 -2 35 -15 54 -28 45 -30 53 -30 53 2 0 25 2 26 38
20 124 -19 156 -19 185 4 32 26 41 87 10 75 -67 -25 -119 -7 -147 51 -16 35
-30 42 -42 22 -4 -7 2 -18 14 -26 31 -20 28 -42 -5 -42 -16 0 -39 12 -56 28
-19 17 -31 23 -34 15 -7 -20 -44 -63 -54 -63 -18 0 -21 29 -5 45 8 9 13 22 10
30 -7 16 -66 56 -80 53 -5 -1 -28 -3 -51 -5z m57 -38 c0 -26 -14 -33 -25 -15
-9 14 1 40 15 40 5 0 10 -11 10 -25z"/>
<path d="M3364 2685 c-5 -11 12 -53 46 -119 58 -110 76 -136 97 -136 19 0 16
30 -9 70 -27 45 -56 95 -80 142 -27 50 -46 66 -54 43z"/>
</g>
</svg>
